<svg width="15" height="17" viewBox="0 0 15 17" fill="none" xmlns="http://www.w3.org/2000/svg">
<path d="M5.44188 13.9594L11.25 7.37681L8.49125 4.25023L2.68313 10.8328C2.60317 10.9235 2.54637 11.0371 2.51875 11.1614L1.875 14.8752L5.15125 14.1456C5.26125 14.1145 5.36188 14.05 5.44188 13.9594V13.9594ZM13.125 5.25181C13.3593 4.98615 13.491 4.62588 13.491 4.25023C13.491 3.87458 13.3593 3.51431 13.125 3.24865L12.1338 2.12523C11.8993 1.85965 11.5815 1.71045 11.25 1.71045C10.9185 1.71045 10.6007 1.85965 10.3663 2.12523L9.375 3.24865L12.1338 6.37523L13.125 5.25181Z" fill="#696969"/>
</svg>
