<svg width="13" height="13" viewBox="0 0 13 13" fill="none" xmlns="http://www.w3.org/2000/svg">
<path d="M6.5 0.25C5.26387 0.25 4.0555 0.616556 3.02769 1.30331C1.99988 1.99007 1.1988 2.96619 0.725756 4.10823C0.252708 5.25027 0.128937 6.50693 0.370095 7.71931C0.611252 8.9317 1.20651 10.0453 2.08059 10.9194C2.95466 11.7935 4.06831 12.3888 5.28069 12.6299C6.49307 12.8711 7.74974 12.7473 8.89177 12.2742C10.0338 11.8012 11.0099 11.0001 11.6967 9.97231C12.3834 8.94451 12.75 7.73613 12.75 6.5C12.75 5.67924 12.5883 4.86651 12.2743 4.10823C11.9602 3.34994 11.4998 2.66095 10.9194 2.08058C10.3391 1.50022 9.65006 1.03984 8.89177 0.725753C8.13349 0.411661 7.32076 0.25 6.5 0.25V0.25ZM6.5 10.25C6.37639 10.25 6.25555 10.2133 6.15277 10.1447C6.04999 10.076 5.96988 9.97838 5.92258 9.86418C5.87527 9.74997 5.8629 9.62431 5.88701 9.50307C5.91113 9.38183 5.97065 9.27047 6.05806 9.18306C6.14547 9.09565 6.25683 9.03612 6.37807 9.01201C6.49931 8.98789 6.62498 9.00027 6.73918 9.04758C6.85338 9.09488 6.951 9.17499 7.01967 9.27777C7.08835 9.38055 7.125 9.50139 7.125 9.625C7.125 9.79076 7.05915 9.94973 6.94194 10.0669C6.82473 10.1842 6.66576 10.25 6.5 10.25ZM7.125 7.025V7.75C7.125 7.91576 7.05915 8.07473 6.94194 8.19194C6.82473 8.30915 6.66576 8.375 6.5 8.375C6.33424 8.375 6.17527 8.30915 6.05806 8.19194C5.94085 8.07473 5.875 7.91576 5.875 7.75V6.5C5.875 6.33424 5.94085 6.17527 6.05806 6.05806C6.17527 5.94085 6.33424 5.875 6.5 5.875C6.68542 5.875 6.86668 5.82002 7.02085 5.717C7.17502 5.61399 7.29518 5.46757 7.36614 5.29627C7.4371 5.12496 7.45566 4.93646 7.41949 4.7546C7.38332 4.57275 7.29403 4.4057 7.16292 4.27459C7.0318 4.14348 6.86476 4.05419 6.6829 4.01801C6.50104 3.98184 6.31254 4.00041 6.14124 4.07136C5.96993 4.14232 5.82351 4.26248 5.7205 4.41665C5.61749 4.57082 5.5625 4.75208 5.5625 4.9375C5.5625 5.10326 5.49665 5.26223 5.37944 5.37944C5.26223 5.49665 5.10326 5.5625 4.9375 5.5625C4.77174 5.5625 4.61277 5.49665 4.49556 5.37944C4.37835 5.26223 4.3125 5.10326 4.3125 4.9375C4.31087 4.53144 4.42229 4.13294 4.63429 3.78661C4.8463 3.44028 5.15052 3.1598 5.51289 2.97657C5.87526 2.79333 6.28148 2.71458 6.68608 2.74912C7.09067 2.78366 7.47766 2.93014 7.80373 3.17216C8.12979 3.41417 8.38206 3.74216 8.53228 4.11942C8.68251 4.49667 8.72476 4.90829 8.65431 5.3082C8.58387 5.70811 8.4035 6.08051 8.1334 6.38372C7.8633 6.68693 7.51414 6.90898 7.125 7.025V7.025Z" fill="#3384E3"/>
</svg>
